<mxfile host="app.diagrams.net" modified="2022-09-04T12:21:43.023Z" agent="5.0 (Windows NT 10.0; Win64; x64) AppleWebKit/537.36 (KHTML, like Gecko) Chrome/105.0.0.0 Safari/537.36" etag="GpOEfwvUcwHi3EU4jFyd" version="20.2.8" type="github">
  <diagram id="31mF7sV5bNmlcgV8FNhd" name="Page-1">
    <mxGraphModel dx="868" dy="492" grid="1" gridSize="10" guides="1" tooltips="1" connect="1" arrows="1" fold="1" page="1" pageScale="1" pageWidth="827" pageHeight="1169" math="0" shadow="0">
      <root>
        <mxCell id="0" />
        <mxCell id="1" parent="0" />
        <mxCell id="Hulxe-mmKqBzoYN5qqvB-1" value="" style="whiteSpace=wrap;html=1;aspect=fixed;" vertex="1" parent="1">
          <mxGeometry x="235" y="160" width="485" height="485" as="geometry" />
        </mxCell>
        <mxCell id="Hulxe-mmKqBzoYN5qqvB-2" value="&lt;font face=&quot;Courier New&quot;&gt;Creer Compte&lt;/font&gt;" style="ellipse;whiteSpace=wrap;html=1;" vertex="1" parent="1">
          <mxGeometry x="385" y="585" width="100" height="50" as="geometry" />
        </mxCell>
        <mxCell id="Hulxe-mmKqBzoYN5qqvB-4" value="&lt;font face=&quot;Courier New&quot;&gt;s&#39;identifier&lt;/font&gt;" style="ellipse;whiteSpace=wrap;html=1;" vertex="1" parent="1">
          <mxGeometry x="570" y="310" width="100" height="50" as="geometry" />
        </mxCell>
        <mxCell id="Hulxe-mmKqBzoYN5qqvB-5" value="&lt;font face=&quot;Courier New&quot;&gt;CrediterCompte&lt;/font&gt;" style="ellipse;whiteSpace=wrap;html=1;" vertex="1" parent="1">
          <mxGeometry x="380" y="220" width="110" height="50" as="geometry" />
        </mxCell>
        <mxCell id="Hulxe-mmKqBzoYN5qqvB-18" value="" style="edgeStyle=orthogonalEdgeStyle;rounded=0;orthogonalLoop=1;jettySize=auto;html=1;fontFamily=Courier New;entryX=0;entryY=0.5;entryDx=0;entryDy=0;" edge="1" parent="1" source="Hulxe-mmKqBzoYN5qqvB-6" target="Hulxe-mmKqBzoYN5qqvB-5">
          <mxGeometry relative="1" as="geometry">
            <Array as="points">
              <mxPoint x="250" y="245" />
              <mxPoint x="250" y="245" />
            </Array>
          </mxGeometry>
        </mxCell>
        <mxCell id="Hulxe-mmKqBzoYN5qqvB-6" value="Membre" style="shape=umlActor;verticalLabelPosition=bottom;verticalAlign=top;html=1;outlineConnect=0;fontFamily=Courier New;" vertex="1" parent="1">
          <mxGeometry x="140" y="220" width="30" height="60" as="geometry" />
        </mxCell>
        <mxCell id="Hulxe-mmKqBzoYN5qqvB-15" value="" style="edgeStyle=orthogonalEdgeStyle;rounded=0;orthogonalLoop=1;jettySize=auto;html=1;fontFamily=Courier New;" edge="1" parent="1" source="Hulxe-mmKqBzoYN5qqvB-7">
          <mxGeometry relative="1" as="geometry">
            <mxPoint x="155" y="300" as="targetPoint" />
          </mxGeometry>
        </mxCell>
        <mxCell id="Hulxe-mmKqBzoYN5qqvB-7" value="Gerant" style="shape=umlActor;verticalLabelPosition=bottom;verticalAlign=top;html=1;outlineConnect=0;fontFamily=Courier New;" vertex="1" parent="1">
          <mxGeometry x="140" y="525" width="30" height="60" as="geometry" />
        </mxCell>
        <mxCell id="Hulxe-mmKqBzoYN5qqvB-16" value="" style="edgeStyle=orthogonalEdgeStyle;rounded=0;orthogonalLoop=1;jettySize=auto;html=1;fontFamily=Courier New;entryX=0;entryY=0.5;entryDx=0;entryDy=0;exitX=0.5;exitY=0.5;exitDx=0;exitDy=0;exitPerimeter=0;" edge="1" parent="1" source="Hulxe-mmKqBzoYN5qqvB-7" target="Hulxe-mmKqBzoYN5qqvB-2">
          <mxGeometry relative="1" as="geometry">
            <mxPoint x="165" y="460" as="sourcePoint" />
            <mxPoint x="165" y="310" as="targetPoint" />
            <Array as="points">
              <mxPoint x="155" y="560" />
              <mxPoint x="280" y="560" />
              <mxPoint x="280" y="610" />
            </Array>
          </mxGeometry>
        </mxCell>
        <mxCell id="Hulxe-mmKqBzoYN5qqvB-21" value="" style="edgeStyle=none;orthogonalLoop=1;jettySize=auto;html=1;rounded=0;fontFamily=Courier New;exitX=1;exitY=0.5;exitDx=0;exitDy=0;dashed=1;" edge="1" parent="1" source="Hulxe-mmKqBzoYN5qqvB-5" target="Hulxe-mmKqBzoYN5qqvB-4">
          <mxGeometry width="80" relative="1" as="geometry">
            <mxPoint x="410" y="400" as="sourcePoint" />
            <mxPoint x="490" y="400" as="targetPoint" />
            <Array as="points" />
          </mxGeometry>
        </mxCell>
        <mxCell id="Hulxe-mmKqBzoYN5qqvB-23" value="&quot;includes&quot;" style="text;html=1;strokeColor=none;fillColor=none;align=center;verticalAlign=middle;whiteSpace=wrap;rounded=0;fontFamily=Courier New;rotation=0;" vertex="1" parent="1">
          <mxGeometry x="570" y="270" width="60" height="30" as="geometry" />
        </mxCell>
        <mxCell id="Hulxe-mmKqBzoYN5qqvB-24" value="&lt;font face=&quot;Courier New&quot;&gt;Effectuer Tirage&lt;/font&gt;" style="ellipse;whiteSpace=wrap;html=1;" vertex="1" parent="1">
          <mxGeometry x="450" y="510" width="110" height="50" as="geometry" />
        </mxCell>
        <mxCell id="Hulxe-mmKqBzoYN5qqvB-25" value="" style="edgeStyle=none;orthogonalLoop=1;jettySize=auto;html=1;rounded=0;fontFamily=Courier New;exitX=0.5;exitY=0.5;exitDx=0;exitDy=0;exitPerimeter=0;" edge="1" parent="1" source="Hulxe-mmKqBzoYN5qqvB-7" target="Hulxe-mmKqBzoYN5qqvB-24">
          <mxGeometry width="80" relative="1" as="geometry">
            <mxPoint x="260" y="440" as="sourcePoint" />
            <mxPoint x="340" y="440" as="targetPoint" />
            <Array as="points" />
          </mxGeometry>
        </mxCell>
        <mxCell id="Hulxe-mmKqBzoYN5qqvB-26" value="" style="edgeStyle=none;orthogonalLoop=1;jettySize=auto;html=1;rounded=0;fontFamily=Courier New;dashed=1;entryX=0.67;entryY=1.04;entryDx=0;entryDy=0;entryPerimeter=0;" edge="1" parent="1" source="Hulxe-mmKqBzoYN5qqvB-24" target="Hulxe-mmKqBzoYN5qqvB-4">
          <mxGeometry width="80" relative="1" as="geometry">
            <mxPoint x="414" y="340" as="sourcePoint" />
            <mxPoint x="486.4438279205881" y="436.5917705607842" as="targetPoint" />
            <Array as="points" />
          </mxGeometry>
        </mxCell>
        <mxCell id="Hulxe-mmKqBzoYN5qqvB-27" value="&quot;includes&quot;" style="text;html=1;strokeColor=none;fillColor=none;align=center;verticalAlign=middle;whiteSpace=wrap;rounded=0;fontFamily=Courier New;rotation=0;" vertex="1" parent="1">
          <mxGeometry x="560" y="480" width="60" height="30" as="geometry" />
        </mxCell>
        <mxCell id="Hulxe-mmKqBzoYN5qqvB-28" value="&lt;font face=&quot;Courier New&quot;&gt;Consulter Compte&lt;/font&gt;" style="ellipse;whiteSpace=wrap;html=1;" vertex="1" parent="1">
          <mxGeometry x="310" y="290" width="110" height="50" as="geometry" />
        </mxCell>
        <mxCell id="Hulxe-mmKqBzoYN5qqvB-29" value="" style="edgeStyle=none;orthogonalLoop=1;jettySize=auto;html=1;rounded=0;fontFamily=Courier New;entryX=0.009;entryY=0.35;entryDx=0;entryDy=0;entryPerimeter=0;" edge="1" parent="1" source="Hulxe-mmKqBzoYN5qqvB-6" target="Hulxe-mmKqBzoYN5qqvB-28">
          <mxGeometry width="80" relative="1" as="geometry">
            <mxPoint x="170" y="401.26642857142855" as="sourcePoint" />
            <mxPoint x="380.3780495280423" y="389.9961759181405" as="targetPoint" />
            <Array as="points" />
          </mxGeometry>
        </mxCell>
        <mxCell id="Hulxe-mmKqBzoYN5qqvB-30" value="" style="edgeStyle=none;orthogonalLoop=1;jettySize=auto;html=1;rounded=0;fontFamily=Courier New;dashed=1;exitX=1;exitY=0.5;exitDx=0;exitDy=0;" edge="1" parent="1" source="Hulxe-mmKqBzoYN5qqvB-28" target="Hulxe-mmKqBzoYN5qqvB-4">
          <mxGeometry width="80" relative="1" as="geometry">
            <mxPoint x="370.9999804302864" y="360.00088300875973" as="sourcePoint" />
            <mxPoint x="456.3016214269604" y="301.090261084855" as="targetPoint" />
            <Array as="points" />
          </mxGeometry>
        </mxCell>
        <mxCell id="Hulxe-mmKqBzoYN5qqvB-33" value="&quot;includes&quot;" style="text;html=1;strokeColor=none;fillColor=none;align=center;verticalAlign=middle;whiteSpace=wrap;rounded=0;fontFamily=Courier New;rotation=0;" vertex="1" parent="1">
          <mxGeometry x="430" y="290" width="60" height="30" as="geometry" />
        </mxCell>
        <mxCell id="Hulxe-mmKqBzoYN5qqvB-36" value="&lt;font face=&quot;Courier New&quot;&gt;Debiter&lt;br&gt;Compte&lt;/font&gt;" style="ellipse;whiteSpace=wrap;html=1;" vertex="1" parent="1">
          <mxGeometry x="350" y="420" width="110" height="50" as="geometry" />
        </mxCell>
        <mxCell id="Hulxe-mmKqBzoYN5qqvB-37" value="" style="edgeStyle=none;orthogonalLoop=1;jettySize=auto;html=1;rounded=0;fontFamily=Courier New;entryX=0;entryY=0.5;entryDx=0;entryDy=0;exitX=0.8;exitY=0.35;exitDx=0;exitDy=0;exitPerimeter=0;" edge="1" parent="1" source="Hulxe-mmKqBzoYN5qqvB-7" target="Hulxe-mmKqBzoYN5qqvB-36">
          <mxGeometry width="80" relative="1" as="geometry">
            <mxPoint x="260" y="450" as="sourcePoint" />
            <mxPoint x="340" y="450" as="targetPoint" />
            <Array as="points" />
          </mxGeometry>
        </mxCell>
        <mxCell id="Hulxe-mmKqBzoYN5qqvB-38" value="" style="edgeStyle=none;orthogonalLoop=1;jettySize=auto;html=1;rounded=0;fontFamily=Courier New;dashed=1;exitX=1;exitY=0.5;exitDx=0;exitDy=0;entryX=0;entryY=1;entryDx=0;entryDy=0;" edge="1" parent="1" source="Hulxe-mmKqBzoYN5qqvB-36" target="Hulxe-mmKqBzoYN5qqvB-4">
          <mxGeometry width="80" relative="1" as="geometry">
            <mxPoint x="430" y="325" as="sourcePoint" />
            <mxPoint x="580.9709662154542" y="340.09709662154546" as="targetPoint" />
            <Array as="points" />
          </mxGeometry>
        </mxCell>
        <mxCell id="Hulxe-mmKqBzoYN5qqvB-39" value="&quot;includes&quot;" style="text;html=1;strokeColor=none;fillColor=none;align=center;verticalAlign=middle;whiteSpace=wrap;rounded=0;fontFamily=Courier New;rotation=0;" vertex="1" parent="1">
          <mxGeometry x="430" y="390" width="60" height="30" as="geometry" />
        </mxCell>
        <mxCell id="Hulxe-mmKqBzoYN5qqvB-41" value="Système de tontine en ligne" style="text;html=1;strokeColor=none;fillColor=none;align=center;verticalAlign=middle;whiteSpace=wrap;rounded=0;fontFamily=Courier New;fontStyle=5" vertex="1" parent="1">
          <mxGeometry x="235" y="160" width="205" height="30" as="geometry" />
        </mxCell>
      </root>
    </mxGraphModel>
  </diagram>
</mxfile>
